<?xml version="1.0" encoding="UTF-8"?>
<svg version="1.1" xmlns="http://www.w3.org/2000/svg" width="1280" height="1280">
<path d="M0 0 C1.23269596 -0.00233999 1.23269596 -0.00233999 2.49029487 -0.00472724 C5.25949329 -0.00873382 8.02863743 -0.00554892 10.7978363 -0.00241089 C12.7767795 -0.00376507 14.75572245 -0.0055451 16.73466492 -0.00772095 C22.12081175 -0.01229297 27.50693949 -0.01050674 32.89308667 -0.00734186 C38.51807028 -0.00481743 44.14305222 -0.007156 49.76803589 -0.00872803 C59.21465856 -0.01054933 68.66127341 -0.00814429 78.1078949 -0.00338745 C89.04604803 0.00205666 99.98418253 0.00029127 110.92233521 -0.00521386 C120.29726209 -0.00974423 129.67218335 -0.01039595 139.04711097 -0.00777519 C144.65357801 -0.0062122 150.26003628 -0.00601927 155.86650276 -0.00931168 C161.13510134 -0.01218935 166.40367577 -0.01021662 171.67227173 -0.00441742 C173.61175941 -0.00308933 175.55124911 -0.00348476 177.49073601 -0.00568008 C180.12650167 -0.00838964 182.76218865 -0.00501289 185.39794922 0 C186.17575275 -0.00223072 186.95355627 -0.00446144 187.7549296 -0.00675976 C193.02133284 0.01283369 193.02133284 0.01283369 194.13548279 1.12698364 C194.2323149 2.48858762 194.25995699 3.85518548 194.25968128 5.22022825 C194.26305222 6.55452707 194.26305222 6.55452707 194.26649126 7.91578141 C194.26386425 8.90624422 194.26123724 9.89670704 194.25853062 10.91718388 C194.25968446 11.96344103 194.26083831 13.00969819 194.26202711 14.0876601 C194.26470227 17.64074617 194.26016427 21.19378812 194.2557373 24.74687195 C194.25617282 27.30098654 194.25704737 29.85510108 194.25832647 32.40921539 C194.26040601 37.9866706 194.25874659 43.56411516 194.25468826 49.14156914 C194.24867031 57.43512831 194.24835087 65.72868073 194.24923025 74.02224168 C194.25054634 87.9711598 194.24719446 101.9200732 194.24121284 115.86898994 C194.23530257 129.68683457 194.23144827 143.50467723 194.23036003 157.32252312 C194.23029129 158.18060303 194.23022255 159.03868295 194.23015173 159.92276529 C194.22981341 164.28024413 194.22951202 168.63772297 194.22922485 172.99520182 C194.22712257 203.88605426 194.22038001 234.77690413 194.21092224 265.66775513 C194.20174282 295.68403103 194.19465675 325.70030623 194.19041443 355.71658325 C194.1902829 356.64127234 194.19015138 357.56596142 194.19001586 358.51867138 C194.18869738 367.80449631 194.18742156 377.09032124 194.18617701 386.37614618 C194.18364056 405.29365661 194.18081931 424.211167 194.17782593 443.12867737 C194.17768864 443.99853772 194.17755135 444.86839808 194.1774099 445.76461783 C194.16820404 503.88540751 194.15233749 562.00619574 194.13548279 620.12698364 C194.79548279 620.12698364 195.45548279 620.12698364 196.13548279 620.12698364 C196.13548279 618.47698364 196.13548279 616.82698364 196.13548279 615.12698364 C197.78548279 615.12698364 199.43548279 615.12698364 201.13548279 615.12698364 C201.13721904 613.82815799 201.13895529 612.52933234 201.14074415 611.19114834 C201.2172881 553.98033849 201.29506148 496.7695304 201.37915039 439.55873108 C201.38105791 438.26056989 201.38105791 438.26056989 201.38300397 436.93618322 C201.41064499 418.13016682 201.43850796 399.32415075 201.46659973 380.51813501 C201.48037354 371.29636131 201.49409828 362.07458754 201.50779724 352.85281372 C201.50916132 351.93511107 201.51052541 351.01740841 201.51193083 350.07189659 C201.55616291 320.29877879 201.59715133 290.5256576 201.63646692 260.75253294 C201.6768684 230.16999398 201.72052379 199.58746136 201.7683039 169.00493299 C201.77504297 164.69049307 201.78174463 160.3760531 201.78842354 156.06161308 C201.78973927 155.21242611 201.79105499 154.36323914 201.79241059 153.48831923 C201.81353803 139.79021797 201.83121075 126.0921143 201.8476081 112.39400665 C201.86414539 98.64007557 201.88428284 84.88615356 201.9081512 71.13223321 C201.92224028 62.94961004 201.93351308 54.76699398 201.94084717 46.58436191 C201.94661107 40.49140128 201.95752155 34.39846176 201.97051609 28.30551177 C201.97497684 25.82772015 201.9777166 23.34992478 201.97864478 20.87212933 C201.98013842 17.52775772 201.98765855 14.18345505 201.99681759 10.83909702 C201.99579492 9.85665594 201.99477225 8.87421485 201.99371859 7.86200282 C201.9973993 6.97963737 202.00108002 6.09727191 202.00487226 5.18816811 C202.00651006 4.03913684 202.00651006 4.03913684 202.00818094 2.86689282 C202.13548279 1.12698364 202.13548279 1.12698364 203.13548279 0.12698364 C205.75311013 0.02918322 208.34433586 -0.00296147 210.96240234 0.00672913 C211.7922179 0.0058747 212.62203345 0.00502028 213.47699493 0.00413996 C216.27927598 0.00248261 219.0814982 0.00801067 221.8837738 0.01345825 C223.88389586 0.01374009 225.88401802 0.01358245 227.88414001 0.01301575 C233.33226314 0.01272766 238.78036445 0.0186262 244.22848248 0.0255897 C249.91533121 0.03182138 255.60218037 0.03242689 261.28903198 0.03361511 C272.06608238 0.03672898 282.84312268 0.04494311 293.62016863 0.0549646 C305.88597886 0.06612402 318.15178957 0.07163576 330.41760361 0.07666004 C355.65690227 0.08712568 380.89619197 0.10472619 406.13548279 0.12698364 C406.46548279 2.43698364 406.79548279 4.74698364 407.13548279 7.12698364 C407.79548279 7.12698364 408.45548279 7.12698364 409.13548279 7.12698364 C409.97907203 9.83249485 410.81053049 12.54078908 411.63548279 15.25198364 C411.87395935 16.01253052 412.11243591 16.77307739 412.35813904 17.55667114 C413.66160502 21.87672983 414.42729979 25.56004755 414.13548279 30.12698364 C414.79548279 30.12698364 415.45548279 30.12698364 416.13548279 30.12698364 C416.46548279 32.43698364 416.79548279 34.74698364 417.13548279 37.12698364 C417.79548279 37.12698364 418.45548279 37.12698364 419.13548279 37.12698364 C419.2450531 37.75604614 419.35462341 38.38510864 419.46751404 39.03323364 C420.26331469 43.32926318 421.12249595 47.37944992 422.76048279 51.43948364 C423.9814628 54.71393004 424.45630818 56.70484617 424.13548279 60.12698364 C424.79548279 60.12698364 425.45548279 60.12698364 426.13548279 60.12698364 C426.4616156 61.26135864 426.78774841 62.39573364 427.12376404 63.56448364 C427.56500719 65.0853643 428.00642268 66.60619497 428.44798279 68.12698364 C428.66132263 68.87077271 428.87466248 69.61456177 429.09446716 70.38088989 C430.19046777 74.14328003 431.36897692 77.81810988 432.79173279 81.47073364 C434.09102775 85.00602458 434.41446497 87.40722119 434.13548279 91.12698364 C434.79548279 91.12698364 435.45548279 91.12698364 436.13548279 91.12698364 C436.46548279 94.09698364 436.79548279 97.06698364 437.13548279 100.12698364 C437.79548279 100.12698364 438.45548279 100.12698364 439.13548279 100.12698364 C439.97551727 102.87509644 440.80770429 105.62517946 441.63548279 108.37698364 C441.87395935 109.15428833 442.11243591 109.93159302 442.35813904 110.73245239 C442.58372498 111.48655396 442.80931091 112.24065552 443.04173279 113.01760864 C443.25120544 113.70886841 443.4606781 114.40012817 443.67649841 115.11233521 C444.13548279 117.12698364 444.13548279 117.12698364 444.13548279 121.12698364 C444.79548279 121.12698364 445.45548279 121.12698364 446.13548279 121.12698364 C446.46548279 124.09698364 446.79548279 127.06698364 447.13548279 130.12698364 C447.79548279 130.12698364 448.45548279 130.12698364 449.13548279 130.12698364 C449.39240906 131.10308594 449.39240906 131.10308594 449.65452576 132.09890747 C450.43406904 135.04732859 451.22217048 137.99339555 452.01048279 140.93948364 C452.27989685 141.9636438 452.54931091 142.98780396 452.82688904 144.04299927 C453.22327576 145.5173645 453.22327576 145.5173645 453.62767029 147.02151489 C453.86856384 147.92748413 454.1094574 148.83345337 454.35765076 149.76687622 C455.09384381 152.35310677 455.09384381 152.35310677 457.13548279 155.12698364 C457.26048279 157.81448364 457.26048279 157.81448364 457.13548279 160.12698364 C457.79548279 160.12698364 458.45548279 160.12698364 459.13548279 160.12698364 C459.13548279 163.09698364 459.13548279 166.06698364 459.13548279 169.12698364 C454.00469318 170.00237903 449.14460231 170.18759552 443.94017029 169.97073364 C442.33446912 169.91643085 440.72875566 169.86249046 439.12303162 169.80886841 C438.28849457 169.77898834 437.45395752 169.74910828 436.59413147 169.71832275 C422.18820172 169.20903338 407.92078745 169.02607723 393.52366638 169.89651489 C386.12319268 170.28865199 379.3915032 169.63814541 372.13548279 168.12698364 C372.13548279 167.13698364 372.13548279 166.14698364 372.13548279 165.12698364 C371.47548279 165.12698364 370.81548279 165.12698364 370.13548279 165.12698364 C369.79774841 163.96940552 369.46001404 162.81182739 369.11204529 161.61917114 C368.66158296 160.08009152 368.21105885 158.54102997 367.76048279 157.00198364 C367.53876404 156.24143677 367.31704529 155.48088989 367.08860779 154.69729614 C366.11873301 151.38831161 365.12911727 148.10841754 364.01048279 144.84573364 C362.85433752 141.25342514 362.52309807 137.87393139 362.13548279 134.12698364 C361.47548279 134.12698364 360.81548279 134.12698364 360.13548279 134.12698364 C359.80548279 131.15698364 359.47548279 128.18698364 359.13548279 125.12698364 C358.47548279 125.12698364 357.81548279 125.12698364 357.13548279 125.12698364 C356.29544831 122.37887084 355.46326128 119.62878783 354.63548279 116.87698364 C354.27776794 115.71102661 354.27776794 115.71102661 353.91282654 114.52151489 C353.6872406 113.76741333 353.46165466 113.01331177 353.22923279 112.23635864 C353.01976013 111.54509888 352.81028748 110.85383911 352.59446716 110.14163208 C352.13548279 108.12698364 352.13548279 108.12698364 352.13548279 104.12698364 C351.47548279 104.12698364 350.81548279 104.12698364 350.13548279 104.12698364 C349.80548279 101.15698364 349.47548279 98.18698364 349.13548279 95.12698364 C348.47548279 95.12698364 347.81548279 95.12698364 347.13548279 95.12698364 C346.64720154 93.10875448 346.15892029 91.09052531 345.67063904 89.07229614 C345.18701287 87.06841795 345.18701287 87.06841795 344.13548279 85.12698364 C330.27548279 84.63198364 330.27548279 84.63198364 316.13548279 84.12698364 C316.13548279 83.46698364 316.13548279 82.80698364 316.13548279 82.12698364 C309.86548279 82.12698364 303.59548279 82.12698364 297.13548279 82.12698364 C297.13548279 82.78698364 297.13548279 83.44698364 297.13548279 84.12698364 C294.49548279 84.12698364 291.85548279 84.12698364 289.13548279 84.12698364 C289.13548279 83.46698364 289.13548279 82.80698364 289.13548279 82.12698364 C288.47548279 82.12698364 287.81548279 82.12698364 287.13548279 82.12698364 C286.80548279 130.30698364 286.47548279 178.48698364 286.13548279 228.12698364 C306.85587341 228.05737427 306.85587341 228.05737427 327.99485779 227.98635864 C336.72663159 227.96592952 345.45838816 227.94650913 354.19017029 227.93167114 C368.0609985 227.90791148 381.93172971 227.87993917 395.80247498 227.82522583 C405.90325118 227.78540212 416.00394889 227.75956129 426.10480142 227.75062966 C431.4549482 227.74540736 436.80487044 227.73310314 442.15494537 227.70406342 C447.18803908 227.67696492 452.22081519 227.66852739 457.25397491 227.67455292 C459.10352808 227.67345019 460.95309159 227.66546326 462.80258179 227.65016174 C465.32391509 227.63032061 467.84404222 227.63502248 470.36540222 227.64596558 C471.10081293 227.63431421 471.83622364 227.62266284 472.59391952 227.61065841 C476.040839 227.65122121 477.81747072 227.87806621 480.56935501 230.03204727 C482.14675195 232.14205788 482.84608373 233.56983255 483.38548279 236.12698364 C483.60977966 237.11698364 483.60977966 237.11698364 483.83860779 238.12698364 C484.13548279 240.12698364 484.13548279 240.12698364 484.13548279 244.12698364 C484.79548279 244.12698364 485.45548279 244.12698364 486.13548279 244.12698364 C486.46548279 247.09698364 486.79548279 250.06698364 487.13548279 253.12698364 C487.79548279 253.12698364 488.45548279 253.12698364 489.13548279 253.12698364 C489.2450531 253.68385864 489.35462341 254.24073364 489.46751404 254.81448364 C490.42002113 259.39890801 491.62833766 263.65949425 493.33860779 268.01370239 C494.25537707 270.44493857 495.05272998 272.89546163 495.82298279 275.37698364 C496.20003357 276.59128052 496.20003357 276.59128052 496.58470154 277.83010864 C497.13548279 280.12698364 497.13548279 280.12698364 497.13548279 284.12698364 C497.79548279 284.12698364 498.45548279 284.12698364 499.13548279 284.12698364 C499.2450531 284.68385864 499.35462341 285.24073364 499.46751404 285.81448364 C500.77567385 292.11066745 502.67387495 297.89606106 505.32298279 303.75198364 C506.13548279 306.12698364 506.13548279 306.12698364 506.13548279 312.12698364 C433.53548279 312.12698364 360.93548279 312.12698364 286.13548279 312.12698364 C286.46548279 363.93698364 286.79548279 415.74698364 287.13548279 469.12698364 C288.78548279 468.46698364 290.43548279 467.80698364 292.13548279 467.12698364 C292.46548279 466.13698364 292.79548279 465.14698364 293.13548279 464.12698364 C295.79632248 462.13302107 298.74790604 460.12698364 302.13548279 460.12698364 C302.46548279 459.13698364 302.79548279 458.14698364 303.13548279 457.12698364 C304.12548279 457.12698364 305.11548279 457.12698364 306.13548279 457.12698364 C306.46548279 456.13698364 306.79548279 455.14698364 307.13548279 454.12698364 C309.53493054 452.44088522 311.51285236 451.26534596 314.38548279 450.62698364 C314.96298279 450.46198364 315.54048279 450.29698364 316.13548279 450.12698364 C316.46548279 449.13698364 316.79548279 448.14698364 317.13548279 447.12698364 C317.79548279 447.12698364 318.45548279 447.12698364 319.13548279 447.12698364 C319.13548279 446.46698364 319.13548279 445.80698364 319.13548279 445.12698364 C325.76048279 441.25198364 325.76048279 441.25198364 329.13548279 440.12698364 C329.13548279 439.46698364 329.13548279 438.80698364 329.13548279 438.12698364 C330.12548279 437.79698364 331.11548279 437.46698364 332.13548279 437.12698364 C333.15846201 436.15050348 334.15452531 435.14567026 335.13548279 434.12698364 C339.70691136 430.12698364 339.70691136 430.12698364 343.13548279 430.12698364 C343.13548279 429.46698364 343.13548279 428.80698364 343.13548279 428.12698364 C344.45548279 427.79698364 345.77548279 427.46698364 347.13548279 427.12698364 C347.13548279 426.46698364 347.13548279 425.80698364 347.13548279 425.12698364 C348.81517029 423.83792114 348.81517029 423.83792114 351.01048279 422.50198364 C351.72977966 422.05596802 352.44907654 421.60995239 353.19017029 421.15042114 C355.13548279 420.12698364 355.13548279 420.12698364 357.13548279 420.12698364 C357.13548279 419.46698364 357.13548279 418.80698364 357.13548279 418.12698364 C358.99876404 416.43557739 358.99876404 416.43557739 361.44798279 414.56448364 C362.64874451 413.63442505 362.64874451 413.63442505 363.87376404 412.68557739 C366.13548279 411.12698364 366.13548279 411.12698364 369.13548279 410.12698364 C369.46548279 409.46698364 369.79548279 408.80698364 370.13548279 408.12698364 C372.54176073 406.50112017 374.53745904 405.25987781 377.38548279 404.62698364 C377.96298279 404.46198364 378.54048279 404.29698364 379.13548279 404.12698364 C379.46548279 403.13698364 379.79548279 402.14698364 380.13548279 401.12698364 C385.39262565 397.12698364 385.39262565 397.12698364 389.13548279 397.12698364 C389.46548279 396.13698364 389.79548279 395.14698364 390.13548279 394.12698364 C392.35032654 392.30276489 392.35032654 392.30276489 395.07298279 390.43948364 C396.41683044 389.50555786 396.41683044 389.50555786 397.78782654 388.55276489 C400.13548279 387.12698364 400.13548279 387.12698364 402.13548279 387.12698364 C402.13548279 386.46698364 402.13548279 385.80698364 402.13548279 385.12698364 C403.81517029 383.83792114 403.81517029 383.83792114 406.01048279 382.50198364 C406.72977966 382.05596802 407.44907654 381.60995239 408.19017029 381.15042114 C410.13548279 380.12698364 410.13548279 380.12698364 412.13548279 380.12698364 C412.13548279 379.46698364 412.13548279 378.80698364 412.13548279 378.12698364 C412.77485779 378.02385864 413.41423279 377.92073364 414.07298279 377.81448364 C414.75360779 377.58760864 415.43423279 377.36073364 416.13548279 377.12698364 C416.46548279 376.13698364 416.79548279 375.14698364 417.13548279 374.12698364 C419.95395354 372.28077594 422.20795482 371.87428102 425.53782654 371.85955811 C426.8500116 371.84676315 426.8500116 371.84676315 428.18870544 371.83370972 C429.61642273 371.83506927 429.61642273 371.83506927 431.07298279 371.8364563 C432.5857782 371.82638046 432.5857782 371.82638046 434.12913513 371.81610107 C437.46463437 371.79709466 440.79993276 371.79319583 444.13548279 371.79104614 C446.45188989 371.78462118 448.76829616 371.77789305 451.08470154 371.77087402 C455.94018944 371.75889543 460.79560615 371.75519392 465.65110779 371.75637817 C471.87907858 371.75658165 478.10659453 371.72925214 484.3344574 371.69483376 C489.11792609 371.67262271 493.9012842 371.66853882 498.68479919 371.66959763 C500.98136466 371.66723397 503.27793282 371.65836775 505.57444763 371.64293289 C508.78261949 371.62338609 511.98979566 371.62906632 515.19798279 371.6411438 C516.14979431 371.62990479 517.10160583 371.61866577 518.08226013 371.60708618 C524.49720356 371.66860359 524.49720356 371.66860359 527.67747498 373.95251465 C529.63510708 376.872122 530.47372297 379.67432908 531.38548279 383.06448364 C531.72063904 384.26975708 532.05579529 385.47503052 532.40110779 386.71682739 C533.04135192 389.68987595 533.40135501 392.11014785 533.13548279 395.12698364 C531.82298279 396.93948364 531.82298279 396.93948364 530.13548279 398.12698364 C529.14548279 398.12698364 528.15548279 398.12698364 527.13548279 398.12698364 C526.80548279 399.11698364 526.47548279 400.10698364 526.13548279 401.12698364 C523.73603503 402.81308207 521.75811322 403.98862133 518.88548279 404.62698364 C518.30798279 404.79198364 517.73048279 404.95698364 517.13548279 405.12698364 C516.80548279 406.11698364 516.47548279 407.10698364 516.13548279 408.12698364 C510.87833993 412.12698364 510.87833993 412.12698364 507.13548279 412.12698364 C506.80548279 413.11698364 506.47548279 414.10698364 506.13548279 415.12698364 C505.47548279 415.12698364 504.81548279 415.12698364 504.13548279 415.12698364 C504.13548279 415.78698364 504.13548279 416.44698364 504.13548279 417.12698364 C500.97194508 419.29626664 497.72300409 420.79447573 494.13548279 422.12698364 C494.13548279 422.78698364 494.13548279 423.44698364 494.13548279 424.12698364 C493.49610779 424.23010864 492.85673279 424.33323364 492.19798279 424.43948364 C491.51735779 424.66635864 490.83673279 424.89323364 490.13548279 425.12698364 C489.80548279 426.11698364 489.47548279 427.10698364 489.13548279 428.12698364 C486.73603503 429.81308207 484.75811322 430.98862133 481.88548279 431.62698364 C481.30798279 431.79198364 480.73048279 431.95698364 480.13548279 432.12698364 C479.80548279 433.11698364 479.47548279 434.10698364 479.13548279 435.12698364 C478.14548279 435.12698364 477.15548279 435.12698364 476.13548279 435.12698364 C476.13548279 435.78698364 476.13548279 436.44698364 476.13548279 437.12698364 C474.70970154 438.41604614 474.70970154 438.41604614 472.82298279 439.75198364 C472.20809998 440.19799927 471.59321716 440.64401489 470.95970154 441.10354614 C469.13548279 442.12698364 469.13548279 442.12698364 466.13548279 442.12698364 C466.13548279 442.78698364 466.13548279 443.44698364 466.13548279 444.12698364 C464.27220154 445.81838989 464.27220154 445.81838989 461.82298279 447.68948364 C460.62222107 448.61954224 460.62222107 448.61954224 459.39720154 449.56838989 C457.13548279 451.12698364 457.13548279 451.12698364 454.13548279 452.12698364 C453.11351287 453.10452008 452.11568653 454.10757175 451.13548279 455.12698364 C447.57992723 458.12698364 447.57992723 458.12698364 444.13548279 458.12698364 C443.80548279 459.11698364 443.47548279 460.10698364 443.13548279 461.12698364 C441.07298279 461.81448364 441.07298279 461.81448364 439.13548279 462.12698364 C439.13548279 462.78698364 439.13548279 463.44698364 439.13548279 464.12698364 C437.48548279 464.45698364 435.83548279 464.78698364 434.13548279 465.12698364 C433.80548279 466.11698364 433.47548279 467.10698364 433.13548279 468.12698364 C430.92063904 469.95120239 430.92063904 469.95120239 428.19798279 471.81448364 C426.85413513 472.74840942 426.85413513 472.74840942 425.48313904 473.70120239 C423.13548279 475.12698364 423.13548279 475.12698364 421.13548279 475.12698364 C421.13548279 475.78698364 421.13548279 476.44698364 421.13548279 477.12698364 C420.49610779 477.41573364 419.85673279 477.70448364 419.19798279 478.00198364 C416.983422 478.95521815 416.983422 478.95521815 416.13548279 481.12698364 C413.72920485 482.75284712 411.73350654 483.99408948 408.88548279 484.62698364 C408.30798279 484.79198364 407.73048279 484.95698364 407.13548279 485.12698364 C406.80548279 486.11698364 406.47548279 487.10698364 406.13548279 488.12698364 C403.73603503 489.81308207 401.75811322 490.98862133 398.88548279 491.62698364 C398.30798279 491.79198364 397.73048279 491.95698364 397.13548279 492.12698364 C396.80548279 493.11698364 396.47548279 494.10698364 396.13548279 495.12698364 C395.14548279 495.12698364 394.15548279 495.12698364 393.13548279 495.12698364 C393.13548279 495.78698364 393.13548279 496.44698364 393.13548279 497.12698364 C391.67454529 498.41604614 391.67454529 498.41604614 389.76048279 499.75198364 C389.13399841 500.19799927 388.50751404 500.64401489 387.86204529 501.10354614 C386.13548279 502.12698364 386.13548279 502.12698364 384.13548279 502.12698364 C384.13548279 502.78698364 384.13548279 503.44698364 384.13548279 504.12698364 C382.81548279 504.45698364 381.49548279 504.78698364 380.13548279 505.12698364 C380.13548279 505.78698364 380.13548279 506.44698364 380.13548279 507.12698364 C378.45579529 508.41604614 378.45579529 508.41604614 376.26048279 509.75198364 C375.54118591 510.19799927 374.82188904 510.64401489 374.08079529 511.10354614 C372.13548279 512.12698364 372.13548279 512.12698364 370.13548279 512.12698364 C369.80548279 513.11698364 369.47548279 514.10698364 369.13548279 515.12698364 C368.14548279 515.12698364 367.15548279 515.12698364 366.13548279 515.12698364 C366.13548279 515.78698364 366.13548279 516.44698364 366.13548279 517.12698364 C362.93906505 519.52429695 360.13430067 521.51178089 356.13548279 522.12698364 C356.13548279 522.78698364 356.13548279 523.44698364 356.13548279 524.12698364 C354.27220154 525.81838989 354.27220154 525.81838989 351.82298279 527.68948364 C351.02247498 528.30952271 350.22196716 528.92956177 349.39720154 529.56838989 C347.13548279 531.12698364 347.13548279 531.12698364 344.13548279 532.12698364 C343.80548279 532.78698364 343.47548279 533.44698364 343.13548279 534.12698364 C340.72920485 535.75284712 338.73350654 536.99408948 335.88548279 537.62698364 C335.30798279 537.79198364 334.73048279 537.95698364 334.13548279 538.12698364 C333.80548279 539.11698364 333.47548279 540.10698364 333.13548279 541.12698364 C331.07298279 541.81448364 331.07298279 541.81448364 329.13548279 542.12698364 C329.13548279 542.78698364 329.13548279 543.44698364 329.13548279 544.12698364 C327.10389144 545.7213218 325.08352415 547.1848597 322.94798279 548.62698364 C322.36983826 549.03046021 321.79169373 549.43393677 321.19602966 549.84963989 C317.95708234 552.06749535 314.84719956 553.84081437 311.13548279 555.12698364 C311.13548279 555.78698364 311.13548279 556.44698364 311.13548279 557.12698364 C310.49610779 557.41573364 309.85673279 557.70448364 309.19798279 558.00198364 C306.983422 558.95521815 306.983422 558.95521815 306.13548279 561.12698364 C303.72920485 562.75284712 301.73350654 563.99408948 298.88548279 564.62698364 C298.30798279 564.79198364 297.73048279 564.95698364 297.13548279 565.12698364 C296.80548279 566.11698364 296.47548279 567.10698364 296.13548279 568.12698364 C293.73603503 569.81308207 291.75811322 570.98862133 288.88548279 571.62698364 C288.30798279 571.79198364 287.73048279 571.95698364 287.13548279 572.12698364 C286.80548279 573.11698364 286.47548279 574.10698364 286.13548279 575.12698364 C285.47548279 575.12698364 284.81548279 575.12698364 284.13548279 575.12698364 C284.13548279 575.78698364 284.13548279 576.44698364 284.13548279 577.12698364 C277.51048279 581.00198364 277.51048279 581.00198364 274.13548279 582.12698364 C274.13548279 582.78698364 274.13548279 583.44698364 274.13548279 584.12698364 C272.81548279 584.45698364 271.49548279 584.78698364 270.13548279 585.12698364 C270.13548279 585.78698364 270.13548279 586.44698364 270.13548279 587.12698364 C268.45579529 588.41604614 268.45579529 588.41604614 266.26048279 589.75198364 C265.18153748 590.42100708 265.18153748 590.42100708 264.08079529 591.10354614 C262.13548279 592.12698364 262.13548279 592.12698364 260.13548279 592.12698364 C259.80548279 593.11698364 259.47548279 594.10698364 259.13548279 595.12698364 C258.14548279 595.12698364 257.15548279 595.12698364 256.13548279 595.12698364 C256.13548279 595.78698364 256.13548279 596.44698364 256.13548279 597.12698364 C254.70970154 598.41604614 254.70970154 598.41604614 252.82298279 599.75198364 C251.90065857 600.42100708 251.90065857 600.42100708 250.95970154 601.10354614 C249.13548279 602.12698364 249.13548279 602.12698364 246.13548279 602.12698364 C246.13548279 602.78698364 246.13548279 603.44698364 246.13548279 604.12698364 C244.27220154 605.81838989 244.27220154 605.81838989 241.82298279 607.68948364 C241.02247498 608.30952271 240.22196716 608.92956177 239.39720154 609.56838989 C237.13548279 611.12698364 237.13548279 611.12698364 234.13548279 612.12698364 C233.80548279 612.78698364 233.47548279 613.44698364 233.13548279 614.12698364 C230.72920485 615.75284712 228.73350654 616.99408948 225.88548279 617.62698364 C225.30798279 617.79198364 224.73048279 617.95698364 224.13548279 618.12698364 C223.80548279 619.11698364 223.47548279 620.10698364 223.13548279 621.12698364 C221.07298279 621.81448364 221.07298279 621.81448364 219.13548279 622.12698364 C219.13548279 622.78698364 219.13548279 623.44698364 219.13548279 624.12698364 C217.48548279 624.45698364 215.83548279 624.78698364 214.13548279 625.12698364 C213.80548279 626.11698364 213.47548279 627.10698364 213.13548279 628.12698364 C210.12580308 630.97825916 208.5088857 632.07731956 204.32688904 632.22854614 C201.52309738 632.01707681 198.86959125 631.78838637 196.13548279 631.12698364 C195.80548279 630.46698364 195.47548279 629.80698364 195.13548279 629.12698364 C194.47548279 630.11698364 193.81548279 631.10698364 193.13548279 632.12698364 C191.15548279 631.79698364 189.17548279 631.46698364 187.13548279 631.12698364 C186.80548279 630.13698364 186.47548279 629.14698364 186.13548279 628.12698364 C184.12039921 627.39374568 184.12039921 627.39374568 182.13548279 627.12698364 C182.13548279 626.46698364 182.13548279 625.80698364 182.13548279 625.12698364 C181.47548279 624.92073364 180.81548279 624.71448364 180.13548279 624.50198364 C176.06368092 622.63574112 172.44751281 620.15136837 169.13548279 617.12698364 C169.13548279 616.46698364 169.13548279 615.80698364 169.13548279 615.12698364 C168.59923279 615.04448364 168.06298279 614.96198364 167.51048279 614.87698364 C164.26207587 613.85117093 161.8479642 612.1613447 159.13548279 610.12698364 C159.13548279 609.46698364 159.13548279 608.80698364 159.13548279 608.12698364 C158.57860779 608.02385864 158.02173279 607.92073364 157.44798279 607.81448364 C154.10279864 606.81996944 151.24320146 605.27705627 148.80735779 602.74807739 C145.94614958 599.97377504 142.52706963 597.94971309 139.21751404 595.74807739 C138.53044373 595.21311646 137.84337341 594.67815552 137.13548279 594.12698364 C137.13548279 593.46698364 137.13548279 592.80698364 137.13548279 592.12698364 C136.41360779 591.85885864 135.69173279 591.59073364 134.94798279 591.31448364 C132.13781896 590.12797003 129.65131722 588.85212725 127.13548279 587.12698364 C127.13548279 586.46698364 127.13548279 585.80698364 127.13548279 585.12698364 C126.17642029 584.94135864 126.17642029 584.94135864 125.19798279 584.75198364 C124.51735779 584.54573364 123.83673279 584.33948364 123.13548279 584.12698364 C122.80548279 583.46698364 122.47548279 582.80698364 122.13548279 582.12698364 C120.66407779 581.24414064 119.15852295 580.41742221 117.63548279 579.62698364 C113.2465939 577.34920586 113.2465939 577.34920586 112.13548279 575.12698364 C111.14548279 574.79698364 110.15548279 574.46698364 109.13548279 574.12698364 C109.13548279 573.46698364 109.13548279 572.80698364 109.13548279 572.12698364 C108.39298279 571.85885864 107.65048279 571.59073364 106.88548279 571.31448364 C104.2448633 570.17421614 102.27995435 569.03318058 100.13548279 567.12698364 C100.13548279 566.46698364 100.13548279 565.80698364 100.13548279 565.12698364 C98.81548279 564.79698364 97.49548279 564.46698364 96.13548279 564.12698364 C96.13548279 563.46698364 96.13548279 562.80698364 96.13548279 562.12698364 C95.51673279 561.98260864 94.89798279 561.83823364 94.26048279 561.68948364 C92.13548279 561.12698364 92.13548279 561.12698364 90.13548279 560.12698364 C90.13548279 559.46698364 90.13548279 558.80698364 90.13548279 558.12698364 C88.81548279 557.79698364 87.49548279 557.46698364 86.13548279 557.12698364 C86.13548279 556.46698364 86.13548279 555.80698364 86.13548279 555.12698364 C84.81548279 554.79698364 83.49548279 554.46698364 82.13548279 554.12698364 C82.13548279 553.46698364 82.13548279 552.80698364 82.13548279 552.12698364 C81.41360779 551.85885864 80.69173279 551.59073364 79.94798279 551.31448364 C77.13781896 550.12797003 74.65131722 548.85212725 72.13548279 547.12698364 C72.13548279 546.46698364 72.13548279 545.80698364 72.13548279 545.12698364 C71.47548279 544.92073364 70.81548279 544.71448364 70.13548279 544.50198364 C66.06368092 542.63574112 62.44751281 540.15136837 59.13548279 537.12698364 C59.13548279 536.46698364 59.13548279 535.80698364 59.13548279 535.12698364 C58.59923279 535.04448364 58.06298279 534.96198364 57.51048279 534.87698364 C54.26207587 533.85117093 51.8479642 532.1613447 49.13548279 530.12698364 C49.13548279 529.46698364 49.13548279 528.80698364 49.13548279 528.12698364 C48.30017029 527.97229614 48.30017029 527.97229614 47.44798279 527.81448364 C44.66419021 526.98686963 42.53696405 525.74960612 40.13548279 524.12698364 C39.80548279 523.46698364 39.47548279 522.80698364 39.13548279 522.12698364 C37.47700101 521.113467 35.80882318 520.11577569 34.13548279 519.12698364 C33.26923279 518.42573364 32.40298279 517.72448364 31.51048279 517.00198364 C29.20025473 514.95988292 29.20025473 514.95988292 26.13548279 514.12698364 C24.80214945 512.79365031 23.46881612 511.46031698 22.13548279 510.12698364 C21.22798279 509.59073364 20.32048279 509.05448364 19.38548279 508.50198364 C18.27173279 507.82135864 18.27173279 507.82135864 17.13548279 507.12698364 C17.13548279 506.46698364 17.13548279 505.80698364 17.13548279 505.12698364 C15.81548279 504.79698364 14.49548279 504.46698364 13.13548279 504.12698364 C13.13548279 503.46698364 13.13548279 502.80698364 13.13548279 502.12698364 C12.59923279 502.04448364 12.06298279 501.96198364 11.51048279 501.87698364 C8.27117892 500.85404558 5.862296 499.12664666 3.13548279 497.12698364 C2.80548279 496.46698364 2.47548279 495.80698364 2.13548279 495.12698364 C1.14548279 494.79698364 0.15548279 494.46698364 -0.86451721 494.12698364 C-0.86451721 493.46698364 -0.86451721 492.80698364 -0.86451721 492.12698364 C-1.58639221 491.85885864 -2.30826721 491.59073364 -3.05201721 491.31448364 C-5.86218104 490.12797003 -8.34868278 488.85212725 -10.86451721 487.12698364 C-10.86451721 486.46698364 -10.86451721 485.80698364 -10.86451721 485.12698364 C-11.85451721 484.79698364 -12.84451721 484.46698364 -13.86451721 484.12698364 C-13.86451721 483.46698364 -13.86451721 482.80698364 -13.86451721 482.12698364 C-14.48326721 481.98260864 -15.10201721 481.83823364 -15.73951721 481.68948364 C-17.86451721 481.12698364 -17.86451721 481.12698364 -19.86451721 480.12698364 C-19.86451721 479.46698364 -19.86451721 478.80698364 -19.86451721 478.12698364 C-21.18451721 477.79698364 -22.50451721 477.46698364 -23.86451721 477.12698364 C-23.86451721 476.46698364 -23.86451721 475.80698364 -23.86451721 475.12698364 C-25.18451721 474.79698364 -26.50451721 474.46698364 -27.86451721 474.12698364 C-27.86451721 473.46698364 -27.86451721 472.80698364 -27.86451721 472.12698364 C-29.84451721 471.46698364 -31.82451721 470.80698364 -33.86451721 470.12698364 C-33.86451721 469.46698364 -33.86451721 468.80698364 -33.86451721 468.12698364 C-35.18451721 467.79698364 -36.50451721 467.46698364 -37.86451721 467.12698364 C-37.86451721 466.46698364 -37.86451721 465.80698364 -37.86451721 465.12698364 C-38.85451721 464.81760864 -38.85451721 464.81760864 -39.86451721 464.50198364 C-43.93631908 462.63574112 -47.55248719 460.15136837 -50.86451721 457.12698364 C-50.86451721 456.46698364 -50.86451721 455.80698364 -50.86451721 455.12698364 C-51.40076721 455.04448364 -51.93701721 454.96198364 -52.48951721 454.87698364 C-55.73792413 453.85117093 -58.1520358 452.1613447 -60.86451721 450.12698364 C-60.86451721 449.46698364 -60.86451721 448.80698364 -60.86451721 448.12698364 C-61.42139221 448.02385864 -61.97826721 447.92073364 -62.55201721 447.81448364 C-65.33580979 446.98686963 -67.46303595 445.74960612 -69.86451721 444.12698364 C-70.19451721 443.46698364 -70.52451721 442.80698364 -70.86451721 442.12698364 C-72.51817128 441.10560907 -74.18828223 440.1108607 -75.86451721 439.12698364 C-77.14586355 438.28867009 -78.4165018 437.43380462 -79.67701721 436.56448364 C-80.28158752 436.15069458 -80.88615784 435.73690552 -81.50904846 435.31057739 C-81.95635315 434.91999146 -82.40365784 434.52940552 -82.86451721 434.12698364 C-82.86451721 433.46698364 -82.86451721 432.80698364 -82.86451721 432.12698364 C-83.94732971 431.72479614 -83.94732971 431.72479614 -85.05201721 431.31448364 C-87.86218104 430.12797003 -90.34868278 428.85212725 -92.86451721 427.12698364 C-92.86451721 426.46698364 -92.86451721 425.80698364 -92.86451721 425.12698364 C-94.18451721 424.79698364 -95.50451721 424.46698364 -96.86451721 424.12698364 C-96.86451721 423.46698364 -96.86451721 422.80698364 -96.86451721 422.12698364 C-97.40076721 422.04448364 -97.93701721 421.96198364 -98.48951721 421.87698364 C-101.72882108 420.85404558 -104.137704 419.12664666 -106.86451721 417.12698364 C-107.19451721 416.46698364 -107.52451721 415.80698364 -107.86451721 415.12698364 C-108.85451721 414.79698364 -109.84451721 414.46698364 -110.86451721 414.12698364 C-110.86451721 413.46698364 -110.86451721 412.80698364 -110.86451721 412.12698364 C-111.58639221 411.85885864 -112.30826721 411.59073364 -113.05201721 411.31448364 C-115.86218104 410.12797003 -118.34868278 408.85212725 -120.86451721 407.12698364 C-120.86451721 406.46698364 -120.86451721 405.80698364 -120.86451721 405.12698364 C-121.85451721 404.79698364 -122.84451721 404.46698364 -123.86451721 404.12698364 C-123.86451721 403.46698364 -123.86451721 402.80698364 -123.86451721 402.12698364 C-124.38014221 402.04448364 -124.89576721 401.96198364 -125.42701721 401.87698364 C-130.16196537 400.42007652 -134.07296302 398.31431493 -136.86451721 394.12698364 C-137.37203027 389.76237132 -136.44052433 386.59195566 -134.79811096 382.56057739 C-132.86343865 377.5174776 -131.4173717 372.29791026 -129.86451721 367.12698364 C-129.20451721 367.12698364 -128.54451721 367.12698364 -127.86451721 367.12698364 C-127.8271344 366.57010864 -127.78975159 366.01323364 -127.75123596 365.43948364 C-127.3490546 360.77102552 -126.55837311 356.82810791 -124.76295471 352.45510864 C-122.83205432 347.45155807 -121.40633766 342.26116748 -119.86451721 337.12698364 C-119.20451721 337.12698364 -118.54451721 337.12698364 -117.86451721 337.12698364 C-117.8271344 336.50952271 -117.78975159 335.89206177 -117.75123596 335.25588989 C-117.33470054 329.8899336 -116.44734395 325.18644411 -114.58326721 320.13479614 C-113.87299986 318.15067972 -113.34279079 316.17804148 -112.86451721 314.12698364 C-112.20451721 314.12698364 -111.54451721 314.12698364 -110.86451721 314.12698364 C-110.53451721 312.80698364 -110.20451721 311.48698364 -109.86451721 310.12698364 C-108.87451721 310.12698364 -107.88451721 310.12698364 -106.86451721 310.12698364 C-106.86451721 309.46698364 -106.86451721 308.80698364 -106.86451721 308.12698364 C-80.13451721 308.12698364 -53.40451721 308.12698364 -25.86451721 308.12698364 C-25.86451721 308.78698364 -25.86451721 309.44698364 -25.86451721 310.12698364 C-24.87451721 310.12698364 -23.88451721 310.12698364 -22.86451721 310.12698364 C-23.19451721 313.09698364 -23.52451721 316.06698364 -23.86451721 319.12698364 C-24.52451721 319.12698364 -25.18451721 319.12698364 -25.86451721 319.12698364 C-25.94701721 320.17885864 -26.02951721 321.23073364 -26.11451721 322.31448364 C-26.87811359 328.46688877 -28.9368337 334.25825829 -30.86451721 340.12698364 C-31.32471252 341.53077271 -31.32471252 341.53077271 -31.79420471 342.96292114 C-32.47572751 345.02047094 -33.16866988 347.07423403 -33.86451721 349.12698364 C-34.52451721 349.12698364 -35.18451721 349.12698364 -35.86451721 349.12698364 C-36.19451721 353.74698364 -36.52451721 358.36698364 -36.86451721 363.12698364 C-35.54451721 363.78698364 -34.22451721 364.44698364 -32.86451721 365.12698364 C-32.86451721 365.78698364 -32.86451721 366.44698364 -32.86451721 367.12698364 C-31.87451721 367.45698364 -30.88451721 367.78698364 -29.86451721 368.12698364 C-29.86451721 368.78698364 -29.86451721 369.44698364 -29.86451721 370.12698364 C-29.32826721 370.20948364 -28.79201721 370.29198364 -28.23951721 370.37698364 C-24.9911103 371.40279635 -22.57699862 373.09262258 -19.86451721 375.12698364 C-19.86451721 375.78698364 -19.86451721 376.44698364 -19.86451721 377.12698364 C-18.54451721 377.45698364 -17.22451721 377.78698364 -15.86451721 378.12698364 C-15.86451721 378.78698364 -15.86451721 379.44698364 -15.86451721 380.12698364 C-13.88451721 380.78698364 -11.90451721 381.44698364 -9.86451721 382.12698364 C-9.86451721 382.78698364 -9.86451721 383.44698364 -9.86451721 384.12698364 C-8.54451721 384.45698364 -7.22451721 384.78698364 -5.86451721 385.12698364 C-5.86451721 385.78698364 -5.86451721 386.44698364 -5.86451721 387.12698364 C-5.14522034 387.38221802 -4.42592346 387.63745239 -3.68482971 387.90042114 C-0.67239339 389.21053888 1.63388269 390.78399372 4.26048279 392.75198364 C5.21438904 393.45967896 6.16829529 394.16737427 7.15110779 394.89651489 C8.13595154 395.63256958 9.12079529 396.36862427 10.13548279 397.12698364 C12.09113682 398.5681266 14.0493827 400.00576047 16.01048279 401.43948364 C17.3059906 402.39274536 17.3059906 402.39274536 18.62767029 403.36526489 C21.12924021 405.17572079 21.12924021 405.17572079 23.89329529 406.73245239 C26.13548279 408.12698364 26.13548279 408.12698364 27.13548279 410.12698364 C28.8910766 411.13482454 30.64851705 412.13997993 32.42454529 413.11135864 C34.30019721 414.22475933 35.63744161 415.55404041 37.13548279 417.12698364 C38.12548279 417.45698364 39.11548279 417.78698364 40.13548279 418.12698364 C40.13548279 418.78698364 40.13548279 419.44698364 40.13548279 420.12698364 C40.69751404 420.39510864 41.25954529 420.66323364 41.83860779 420.93948364 C44.29098925 422.20738154 46.57475962 423.61670706 48.88548279 425.12698364 C50.08431091 425.90042114 50.08431091 425.90042114 51.30735779 426.68948364 C52.21227966 427.40104614 52.21227966 427.40104614 53.13548279 428.12698364 C53.13548279 428.78698364 53.13548279 429.44698364 53.13548279 430.12698364 C53.67173279 430.20948364 54.20798279 430.29198364 54.76048279 430.37698364 C58.0088897 431.40279635 60.42300138 433.09262258 63.13548279 435.12698364 C63.13548279 435.78698364 63.13548279 436.44698364 63.13548279 437.12698364 C64.45548279 437.45698364 65.77548279 437.78698364 67.13548279 438.12698364 C67.13548279 438.78698364 67.13548279 439.44698364 67.13548279 440.12698364 C67.85735779 440.39510864 68.57923279 440.66323364 69.32298279 440.93948364 C72.13314662 442.12599726 74.61964835 443.40184003 77.13548279 445.12698364 C77.13548279 445.78698364 77.13548279 446.44698364 77.13548279 447.12698364 C78.45548279 447.45698364 79.77548279 447.78698364 81.13548279 448.12698364 C81.13548279 448.78698364 81.13548279 449.44698364 81.13548279 450.12698364 C81.87798279 450.39510864 82.62048279 450.66323364 83.38548279 450.93948364 C86.02610228 452.07975115 87.99101123 453.2207867 90.13548279 455.12698364 C90.13548279 455.78698364 90.13548279 456.44698364 90.13548279 457.12698364 C91.45548279 457.45698364 92.77548279 457.78698364 94.13548279 458.12698364 C94.13548279 458.78698364 94.13548279 459.44698364 94.13548279 460.12698364 C95.78548279 460.45698364 97.43548279 460.78698364 99.13548279 461.12698364 C99.46548279 462.11698364 99.79548279 463.10698364 100.13548279 464.12698364 C102.15056637 464.8602216 102.15056637 464.8602216 104.13548279 465.12698364 C104.13548279 465.78698364 104.13548279 466.44698364 104.13548279 467.12698364 C105.78548279 467.45698364 107.43548279 467.78698364 109.13548279 468.12698364 C109.46548279 341.40698364 109.79548279 214.68698364 110.13548279 84.12698364 C63.27548279 84.12698364 16.41548279 84.12698364 -31.86451721 84.12698364 C-33.18451721 83.13698364 -34.50451721 82.14698364 -35.86451721 81.12698364 C-35.14999134 76.3634778 -34.06916877 71.78496968 -32.86451721 67.12698364 C-32.20451721 67.12698364 -31.54451721 67.12698364 -30.86451721 67.12698364 C-30.53451721 64.81698364 -30.20451721 62.50698364 -29.86451721 60.12698364 C-29.20451721 60.12698364 -28.54451721 60.12698364 -27.86451721 60.12698364 C-27.83873596 59.55592896 -27.81295471 58.98487427 -27.78639221 58.39651489 C-27.26355017 50.92225027 -25.24977567 44.20509943 -22.86451721 37.12698364 C-22.20451721 37.12698364 -21.54451721 37.12698364 -20.86451721 37.12698364 C-20.53451721 34.15698364 -20.20451721 31.18698364 -19.86451721 28.12698364 C-19.20451721 28.12698364 -18.54451721 28.12698364 -17.86451721 28.12698364 C-17.76139221 26.99260864 -17.65826721 25.85823364 -17.55201721 24.68948364 C-16.96099407 19.9190826 -15.48589563 15.63174121 -13.86451721 11.12698364 C-13.51389221 10.03385864 -13.16326721 8.94073364 -12.80201721 7.81448364 C-10.1436697 0.19388744 -7.80394878 -0.02244591 0 0 Z " fill="#419C6C" transform="translate(441.86451721191406,323.8730163574219)"/>
<path d="M0 0 C0.33 0 0.66 0 1 0 C1 1.65 1 3.3 1 5 C1.99 5 2.98 5 4 5 C4.33 7.97 4.66 10.94 5 14 C5.99 14 6.98 14 8 14 C8 14.66 8 15.32 8 16 C6.35 16 4.7 16 3 16 C2.67 15.34 2.34 14.68 2 14 C1.34 14.66 0.68 15.32 0 16 C0 10.72 0 5.44 0 0 Z " fill="#69B48D" transform="translate(635,939)"/>
<path d="M0 0 C1.47088185 0.04235142 2.94146488 0.09601937 4.41162109 0.15869141 C5.18565277 0.18371735 5.95968445 0.20874329 6.75717163 0.23452759 C9.23357392 0.31681306 11.70918867 0.41336787 14.18505859 0.51025391 C15.86210958 0.56848484 17.53919304 0.62578831 19.21630859 0.68212891 C23.33134628 0.82240425 27.44573368 0.97548043 31.56005859 1.13525391 C31.56005859 1.46525391 31.56005859 1.79525391 31.56005859 2.13525391 C27.57680447 2.30441946 23.5932975 2.46479276 19.609375 2.61743164 C17.59665991 2.69631933 15.58421216 2.78193541 13.57177734 2.86767578 C7.09743014 3.11168384 0.95413107 3.23627404 -5.43994141 2.13525391 C-3.43994141 0.13525391 -3.43994141 0.13525391 0 0 Z " fill="#6CC69B" transform="translate(823.43994140625,490.86474609375)"/>
<path d="M0 0 C1.98 0 3.96 0 6 0 C7.26264601 4.29299643 6.62950412 6.87831311 5 11 C2.4345406 8.4345406 2.45953913 6.52313332 2 3 C1.34 3 0.68 3 0 3 C0 2.01 0 1.02 0 0 Z " fill="#4BA375" transform="translate(638,939)"/>
<path d="M0 0 C1.21816406 0.03480469 1.21816406 0.03480469 2.4609375 0.0703125 C3.68683594 0.09738281 3.68683594 0.09738281 4.9375 0.125 C5.87722656 0.15980469 5.87722656 0.15980469 6.8359375 0.1953125 C6.8359375 1.1853125 6.8359375 2.1753125 6.8359375 3.1953125 C3.2059375 2.8653125 -0.4240625 2.5353125 -4.1640625 2.1953125 C-2.1640625 0.1953125 -2.1640625 0.1953125 0 0 Z " fill="#64B48B" transform="translate(822.1640625,490.8046875)"/>
<path d="M0 0 C1.98 0 3.96 0 6 0 C5.67 1.32 5.34 2.64 5 4 C3.35 3.67 1.7 3.34 0 3 C0 2.01 0 1.02 0 0 Z " fill="#A8D6B6" transform="translate(638,939)"/>
</svg>
