<?xml version="1.0" encoding="UTF-8"?>
<svg id="Capa_1" data-name="Capa 1" xmlns="http://www.w3.org/2000/svg" viewBox="0 0 979.99 927.76">
  <defs>
    <style>
      .cls-1 {
        fill: #409b6c;
        stroke-width: 0px;
      }
    </style>
  </defs>
  <path class="cls-1" d="M498.45,465.17c0-150.5,0-301,0-451.5,0-13.62.01-13.68,13.96-13.67,90.25.05,180.5.21,270.75.06,8.24-.01,11.83,2.69,14.41,10.83,18.39,58.1,37.44,115.98,56.29,173.93,5.7,17.52,11.29,35.08,17.25,52.52,2.08,6.08.45,7.79-5.8,7.75-34.92-.26-69.84-.38-104.76-.15-7.62.05-11.86-1.84-14.36-9.88-11.26-36.12-23.4-71.96-34.83-108.04-2.15-6.79-5.3-9.2-12.53-9.07-24.58.45-49.18.3-73.77.02-6.03-.07-8.12,1.72-8.06,7.98.45,48.44.67,96.88.77,145.32.04,19.17-.27,38.35-.74,57.52-.16,6.65,1.57,9.58,9.04,9.56,72.04-.25,144.08-.16,216.12-.17,17.71,0,35.42.22,53.11-.19,6.8-.16,9.46,2.98,11.36,8.89,10.83,33.69,21.93,67.28,32.94,100.91,2.62,8,2.23,8.58-6.6,8.57-92.96-.1-185.91-.23-278.87-.34-9.59-.01-19.2.35-28.77-.09-6.44-.29-8.5,1.79-8.4,8.38.54,32.93.82,65.87.81,98.8-.01,41.06-.42,82.12-.53,123.19,0,2.75-1.61,6.56,1.48,8.13,3.35,1.7,5.85-1.74,8.31-3.52,52.92-38.34,105.78-76.75,158.66-115.14,9.94-7.21,19.95-14.31,29.85-21.57,3.72-2.73,7.73-4.08,12.34-4.08,45.74-.03,91.48-.06,137.21-.24,5.24-.02,7.98,2.11,9.83,6.94,7.92,20.76,8.02,20.72-10.43,34.11-94.22,68.36-188.48,136.65-282.63,205.1-58.98,42.88-117.79,86.01-176.67,129.03-1.77,1.3-3.55,3.35-5.84,2.5-3.11-1.15-1.72-4.29-1.71-6.48.28-71.31.82-142.62.99-213.93.19-80.66.04-161.32.04-241.98-.08,0-.15,0-.23,0Z"/>
  <path class="cls-1" d="M481.32,463.84c0,150.5,0,301-.06,451.5,0,3.54,1.82,8.47-1.46,10.32-3.87,2.18-7.13-2.32-10.11-4.49-104.46-76-208.79-152.19-313.23-228.21-50.44-36.71-101.04-73.19-151.67-109.63-4.56-3.28-5.74-6.81-4.06-11.96,11.8-36.2,23.56-72.42,35.2-108.68,1.37-4.26,3.88-5.68,8.15-5.68,36.15.02,72.3-.13,108.45-.11,8.09,0,9.03,1.23,6.39,9.35-6.22,19.16-12.47,38.33-19.36,57.25-2.51,6.89-1.81,11.01,4.43,15.51,53.76,38.81,107.3,77.94,160.89,116.99,16.27,11.86,32.49,23.77,48.72,35.68,2.15,1.57,4.24,4.28,7.07,2.71,2.64-1.46,2.1-4.78,2.12-7.42.1-13.03.1-26.07.1-39.1,0-173.37-.01-346.74,0-520.11,0-9.83-.04-9.74-9.84-9.72-65.17.14-130.33.22-195.5.27-8.61,0-9.58-1.32-6.87-9.61,11.03-33.86,22.23-67.67,33.13-101.57,1.46-4.55,3.87-6.32,8.45-6.35,19.91-.14,39.82-.63,59.73-.66,71.81-.11,143.61-.08,215.42-.1,2.21,0,4.43.03,6.64.09,5.06.13,7.31,2.33,7.19,7.79-.33,15.98-.22,31.97-.22,47.95,0,135.99,0,271.98,0,407.97h.32Z"/>
</svg>